<svg width="200" height="200" viewBox="0 0 200 200" fill="none" xmlns="http://www.w3.org/2000/svg">
<path d="M200 149.997C200 177.61 177.616 200 149.997 200C122.378 200 100 177.61 100 149.997C100 177.61 77.616 200 49.9972 200C22.3784 200 0 177.61 0 149.997C0 122.384 22.384 100 49.9972 100C22.384 100 0 77.6103 0 49.9972C0 22.384 22.384 0 49.9972 0C77.6103 0 100 22.384 100 49.9972C100 22.384 122.384 0 149.997 0C177.61 0 200 22.384 200 49.9972C200 77.6103 177.616 100 149.997 100C177.616 100 200 122.384 200 149.997Z" fill="#FFA80D"/>
</svg>
